<svg width="150" height="150" viewBox="0 0 150 150" fill="none" xmlns="http://www.w3.org/2000/svg">
<rect width="150" height="150" fill="#E5E7EB"/>
<path d="M125 41.6667C125 38.8061 122.527 36.4286 119.559 36.4286H30.4412C27.4731 36.4286 25 38.8061 25 41.6667V108.333C25 111.194 27.4731 113.571 30.4412 113.571H119.559C122.527 113.571 125 111.194 125 108.333V41.6667Z" stroke="#9CA3AF" stroke-width="3"/>
<path d="M50 67.8571C54.6024 67.8571 58.3333 64.2618 58.3333 59.8214C58.3333 55.381 54.6024 51.7857 50 51.7857C45.3976 51.7857 41.6667 55.381 41.6667 59.8214C41.6667 64.2618 45.3976 67.8571 50 67.8571Z" stroke="#9CA3AF" stroke-width="3"/>
<path d="M125 89.2857L95.8333 65.1786L37.5 113.571" stroke="#9CA3AF" stroke-width="3" stroke-linecap="round" stroke-linejoin="round"/>
</svg>